<svg width="512" height="314" viewBox="0 0 512 314" fill="none" xmlns="http://www.w3.org/2000/svg">
<g clip-path="url(#clip0)">
<path d="M253.879 298.094C252.146 298.094 250.528 297.632 249.025 296.823L233.654 287.693C231.342 286.421 232.498 285.959 233.191 285.728C236.312 284.688 236.89 284.456 240.126 282.607C240.473 282.376 240.935 282.492 241.282 282.723L253.07 289.773C253.533 290.004 254.111 290.004 254.457 289.773L300.572 263.075C301.034 262.844 301.265 262.382 301.265 261.804V208.523C301.265 207.945 301.034 207.483 300.572 207.252L254.457 180.67C253.995 180.438 253.417 180.438 253.07 180.67L206.956 207.252C206.493 207.483 206.262 208.061 206.262 208.523V261.804C206.262 262.266 206.493 262.844 206.956 263.075L219.553 270.356C226.372 273.823 230.649 269.778 230.649 265.733V213.146C230.649 212.453 231.227 211.759 232.036 211.759H237.93C238.623 211.759 239.317 212.337 239.317 213.146V265.733C239.317 274.864 234.347 280.18 225.679 280.18C223.021 280.18 220.94 280.18 215.046 277.291L202.911 270.356C199.906 268.623 198.056 265.386 198.056 261.919V208.639C198.056 205.172 199.906 201.935 202.911 200.202L249.025 173.504C251.915 171.886 255.844 171.886 258.734 173.504L304.848 200.202C307.853 201.935 309.702 205.172 309.702 208.639V261.919C309.702 265.386 307.853 268.623 304.848 270.356L258.734 297.054C257.231 297.748 255.498 298.094 253.879 298.094ZM268.095 261.457C247.87 261.457 243.709 252.211 243.709 244.352C243.709 243.658 244.287 242.965 245.096 242.965H251.106C251.799 242.965 252.377 243.427 252.377 244.121C253.302 250.246 255.96 253.251 268.211 253.251C277.919 253.251 282.08 251.055 282.08 245.854C282.08 242.849 280.924 240.653 265.784 239.151C253.186 237.879 245.327 235.106 245.327 225.051C245.327 215.689 253.186 210.141 266.362 210.141C281.155 210.141 288.437 215.227 289.361 226.322C289.361 226.669 289.246 227.015 289.014 227.362C288.783 227.593 288.437 227.824 288.09 227.824H282.08C281.502 227.824 280.924 227.362 280.809 226.784C279.422 220.428 275.839 218.347 266.362 218.347C255.729 218.347 254.457 222.046 254.457 224.819C254.457 228.171 255.96 229.211 270.291 231.06C284.507 232.91 291.21 235.568 291.21 245.507C291.095 255.678 282.773 261.457 268.095 261.457Z" fill="#539E43"/>
<path d="M110.797 89.7115C110.797 87.6311 109.641 85.6664 107.792 84.6262L58.7878 56.4257C57.9788 55.9634 57.0542 55.7323 56.1296 55.6167H55.6673C54.7427 55.6167 53.8181 55.9634 53.009 56.4257L4.00497 84.6262C2.15576 85.6664 1 87.6311 1 89.7115L1.11558 165.529C1.11558 166.569 1.69345 167.609 2.61806 168.072C3.54266 168.65 4.69842 168.65 5.50745 168.072L34.6325 151.429C36.4817 150.389 37.6375 148.424 37.6375 146.344V110.862C37.6375 108.781 38.7932 106.817 40.6424 105.777L53.009 98.6108C53.9336 98.0329 54.9738 97.8018 56.014 97.8018C57.0542 97.8018 58.0944 98.0329 58.9034 98.6108L71.27 105.777C73.1192 106.817 74.2749 108.781 74.2749 110.862V146.344C74.2749 148.424 75.4307 150.389 77.2799 151.429L106.405 168.072C107.33 168.65 108.485 168.65 109.41 168.072C110.335 167.609 110.912 166.569 110.912 165.529L110.797 89.7115Z" fill="#D8D8D8"/>
<path d="M346.34 -14.6533C345.415 -15.1156 344.26 -15.1156 343.451 -14.6533C342.526 -14.0754 341.948 -13.1508 341.948 -12.1106V63.0135C341.948 63.707 341.601 64.4005 340.908 64.8628C340.214 65.2095 339.521 65.2095 338.828 64.8628L326.577 57.8126C324.727 56.7725 322.531 56.7725 320.682 57.8126L271.678 86.1287C269.829 87.1689 268.673 89.1336 268.673 91.214V147.73C268.673 149.811 269.829 151.776 271.678 152.816L320.682 181.132C322.531 182.172 324.727 182.172 326.577 181.132L375.581 152.816C377.43 151.776 378.586 149.811 378.586 147.73V6.84379C378.586 4.64786 377.43 2.68307 375.581 1.64289L346.34 -14.6533ZM341.833 129.123C341.833 129.701 341.601 130.163 341.139 130.394L324.381 140.102C323.918 140.334 323.34 140.334 322.878 140.102L306.12 130.394C305.657 130.163 305.426 129.585 305.426 129.123V109.706C305.426 109.128 305.657 108.666 306.12 108.435L322.878 98.7264C323.34 98.4953 323.918 98.4953 324.381 98.7264L341.139 108.435C341.601 108.666 341.833 109.244 341.833 109.706V129.123Z" fill="#D8D8D8"/>
<path d="M509.417 109.244C511.266 108.204 512.307 106.239 512.307 104.158V90.405C512.307 88.3246 511.151 86.3598 509.417 85.3196L460.76 57.1192C458.911 56.079 456.715 56.079 454.865 57.1192L405.861 85.4352C404.012 86.4754 402.856 88.4402 402.856 90.5205V147.037C402.856 149.117 404.012 151.082 405.861 152.122L454.519 179.86C456.368 180.901 458.564 180.901 460.298 179.86L489.769 163.449C490.694 162.986 491.272 161.946 491.272 160.906C491.272 159.866 490.694 158.826 489.769 158.363L440.534 130.047C439.609 129.47 439.032 128.545 439.032 127.505V109.822C439.032 108.781 439.609 107.741 440.534 107.279L455.906 98.4953C456.83 97.9174 457.986 97.9174 458.911 98.4953L474.282 107.279C475.207 107.857 475.785 108.781 475.785 109.822V123.691C475.785 124.731 476.363 125.771 477.287 126.233C478.212 126.811 479.368 126.811 480.292 126.233L509.417 109.244Z" fill="#D8D8D8"/>
<path d="M457.061 106.586C457.408 106.354 457.87 106.354 458.217 106.586L467.579 112.018C467.926 112.249 468.157 112.595 468.157 113.058V123.922C468.157 124.384 467.926 124.731 467.579 124.962L458.217 130.394C457.87 130.625 457.408 130.625 457.061 130.394L447.7 124.962C447.353 124.731 447.122 124.384 447.122 123.922V113.058C447.122 112.595 447.353 112.249 447.7 112.018L457.061 106.586Z" fill="#539E43"/>
<mask id="mask0" mask-type="alpha" maskUnits="userSpaceOnUse" x="135" y="56" width="110" height="125">
<path d="M192.74 57.3503C190.891 56.3102 188.695 56.3102 186.846 57.3503L138.188 85.4352C136.339 86.4754 135.299 88.4402 135.299 90.5205V146.806C135.299 148.886 136.455 150.851 138.188 151.891L186.846 179.976C188.695 181.016 190.891 181.016 192.74 179.976L241.397 151.891C243.246 150.851 244.287 148.886 244.287 146.806V90.5205C244.287 88.4402 243.131 86.4754 241.397 85.4352L192.74 57.3503Z" fill="white"/>
</mask>
<g mask="url(#mask0)">
<path d="M192.74 57.3503C190.891 56.3102 188.695 56.3102 186.846 57.3503L138.188 85.4352C136.339 86.4754 135.299 88.4402 135.299 90.5205V146.806C135.299 148.886 136.455 150.851 138.188 151.891L186.846 179.976C188.695 181.016 190.891 181.016 192.74 179.976L241.397 151.891C243.246 150.851 244.287 148.886 244.287 146.806V90.5205C244.287 88.4402 243.131 86.4754 241.397 85.4352L192.74 57.3503Z" fill="url(#paint0_linear)"/>
<path d="M241.513 85.4352L192.624 57.3504C192.162 57.1192 191.584 56.8881 191.122 56.7725L136.339 150.62C136.801 151.198 137.379 151.66 137.957 152.007L186.846 180.092C188.232 180.901 189.851 181.132 191.353 180.67L242.784 86.591C242.437 86.1287 241.975 85.782 241.513 85.4352Z" fill="url(#paint1_linear)"/>
<path fill-rule="evenodd" clip-rule="evenodd" d="M241.628 151.891C243.015 151.082 244.056 149.695 244.518 148.193L190.891 56.6569C189.504 56.4257 188.001 56.5413 186.73 57.3503L138.188 85.3196L190.544 180.785C191.237 180.67 192.046 180.438 192.74 180.092L241.628 151.891Z" fill="url(#paint2_linear)"/>
<path fill-rule="evenodd" clip-rule="evenodd" d="M241.628 151.891L192.856 179.976C192.162 180.323 191.469 180.554 190.66 180.67L191.584 182.403L245.674 151.082V150.389L244.287 148.077C244.056 149.695 243.015 151.082 241.628 151.891Z" fill="url(#paint3_linear)"/>
<path fill-rule="evenodd" clip-rule="evenodd" d="M241.628 151.891L192.856 179.976C192.162 180.323 191.469 180.554 190.66 180.67L191.584 182.403L245.674 151.082V150.389L244.287 148.077C244.056 149.695 243.015 151.082 241.628 151.891Z" fill="url(#paint4_linear)"/>
</g>
</g>
<defs>
<linearGradient id="paint0_linear" x1="209.616" y1="78.2864" x2="156.281" y2="162.088" gradientUnits="userSpaceOnUse">
<stop stop-color="#41873F"/>
<stop offset="0.3288" stop-color="#418B3D"/>
<stop offset="0.6352" stop-color="#419637"/>
<stop offset="0.9319" stop-color="#3FA92D"/>
<stop offset="1" stop-color="#3FAE2A"/>
</linearGradient>
<linearGradient id="paint1_linear" x1="182.405" y1="125.255" x2="315.974" y2="52.687" gradientUnits="userSpaceOnUse">
<stop offset="0.1376" stop-color="#41873F"/>
<stop offset="0.4032" stop-color="#54A044"/>
<stop offset="0.7136" stop-color="#66B848"/>
<stop offset="0.9081" stop-color="#6CC04A"/>
</linearGradient>
<linearGradient id="paint2_linear" x1="133.522" y1="118.665" x2="246.112" y2="118.665" gradientUnits="userSpaceOnUse">
<stop offset="0.0919165" stop-color="#6CC04A"/>
<stop offset="0.2864" stop-color="#66B848"/>
<stop offset="0.5968" stop-color="#54A044"/>
<stop offset="0.8624" stop-color="#41873F"/>
</linearGradient>
<linearGradient id="paint3_linear" x1="133.522" y1="165.335" x2="246.112" y2="165.335" gradientUnits="userSpaceOnUse">
<stop offset="0.0919165" stop-color="#6CC04A"/>
<stop offset="0.2864" stop-color="#66B848"/>
<stop offset="0.5968" stop-color="#54A044"/>
<stop offset="0.8624" stop-color="#41873F"/>
</linearGradient>
<linearGradient id="paint4_linear" x1="262.515" y1="75.6256" x2="233.992" y2="225.088" gradientUnits="userSpaceOnUse">
<stop stop-color="#41873F"/>
<stop offset="0.3288" stop-color="#418B3D"/>
<stop offset="0.6352" stop-color="#419637"/>
<stop offset="0.9319" stop-color="#3FA92D"/>
<stop offset="1" stop-color="#3FAE2A"/>
</linearGradient>
<clipPath id="clip0">
<rect width="512" height="314" fill="white"/>
</clipPath>
</defs>
</svg>
